<svg width="934" height="338" viewBox="0 0 934 338" fill="none" xmlns="http://www.w3.org/2000/svg">
<g clip-path="url(#clip0_5_2)">
<path d="M29.2676 219.309C29.2676 219.227 29.2269 219.187 29.1455 219.187C29.1455 219.105 29.1455 219.024 29.1455 218.942C29.1455 217.884 29.7152 217.355 30.8545 217.355C31.5869 217.355 32.238 217.64 32.8076 218.21C36.0628 221.302 39.7656 223.825 43.916 225.778C48.1478 227.731 52.7051 228.708 57.5879 228.708C58.89 228.708 60.3955 228.586 62.1045 228.342C63.8135 228.016 65.4411 227.528 66.9873 226.877C68.5335 226.226 69.7949 225.371 70.7715 224.313C71.8294 223.174 72.3584 221.791 72.3584 220.163C72.3584 218.373 71.9108 216.745 71.0156 215.28C70.1204 213.734 68.9404 212.473 67.4756 211.496C66.6618 210.926 65.2376 209.95 63.2031 208.566C61.1686 207.102 58.9714 205.555 56.6113 203.928C54.3327 202.3 52.1354 200.754 50.0195 199.289C47.985 197.824 46.5609 196.766 45.7471 196.115C42.085 193.348 39.1553 190.541 36.958 187.692C34.8421 184.844 33.2145 181.914 32.0752 178.903C30.9359 175.811 30.2035 172.596 29.8779 169.26C29.5524 165.923 29.3896 162.383 29.3896 158.64C29.3896 152.943 30.8952 147.572 33.9062 142.526C36.9173 137.481 40.8643 133.046 45.7471 129.221C50.7113 125.396 56.3265 122.385 62.5928 120.188C68.859 117.909 75.2474 116.77 81.7578 116.77C87.1289 116.77 92.4186 117.583 97.627 119.211C102.835 120.839 107.677 123.605 112.153 127.512C112.56 132.639 112.845 137.684 113.008 142.648C113.171 147.613 113.415 152.821 113.74 158.273C113.74 159.331 113.496 160.064 113.008 160.471C112.52 160.796 111.95 160.959 111.299 160.959C110.729 160.959 110.241 160.756 109.834 160.349C107.962 158.558 106.05 156.809 104.097 155.1C102.144 153.309 100.068 151.763 97.8711 150.461C95.7552 149.077 93.4766 147.979 91.0352 147.165C88.5938 146.27 85.9896 145.822 83.2227 145.822C81.5137 145.822 79.8047 145.985 78.0957 146.311C76.3867 146.555 74.8405 147.084 73.457 147.897C72.0736 148.63 70.9342 149.647 70.0391 150.949C69.2253 152.251 68.8184 153.92 68.8184 155.954C68.8184 158.314 69.1032 160.349 69.6729 162.058C70.2425 163.767 71.5853 165.435 73.7012 167.062L96.4062 182.443C100.557 185.292 103.893 188.099 106.416 190.866C109.02 193.552 111.055 196.237 112.52 198.923C113.984 201.608 114.961 204.294 115.449 206.979C116.019 209.584 116.304 212.188 116.304 214.792C116.304 222.116 114.595 228.586 111.177 234.201C107.84 239.735 103.486 244.374 98.1152 248.117C92.7441 251.779 86.6406 254.546 79.8047 256.418C73.0501 258.371 66.2549 259.348 59.4189 259.348C54.2106 259.348 49.165 258.778 44.2822 257.639C39.4808 256.581 35.0049 254.912 30.8545 252.634L29.2676 219.309ZM137.056 201.242C138.114 190.093 139.172 179.066 140.229 168.161C141.287 157.256 142.223 146.066 143.037 134.592C143.2 131.906 143.444 130.075 143.77 129.099C144.176 128.041 145.112 127.349 146.577 127.023C153.494 125.64 160.737 124.216 168.306 122.751C175.874 121.205 183.198 119.252 190.278 116.892C190.522 116.81 190.889 116.77 191.377 116.77C192.272 116.77 192.72 117.095 192.72 117.746L181.733 236.643C181.489 239.328 181.204 241.2 180.879 242.258C180.553 243.234 179.658 243.885 178.193 244.211C171.276 246.327 164.277 248.687 157.197 251.291C150.117 253.895 142.63 256.54 134.736 259.226C134.492 259.307 134.126 259.348 133.638 259.348C132.743 259.348 132.295 258.941 132.295 258.127C132.295 258.046 132.376 256.947 132.539 254.831C132.702 252.715 132.905 249.989 133.149 246.652C133.475 243.316 133.8 239.572 134.126 235.422C134.451 231.271 134.777 227.121 135.103 222.971C135.509 218.82 135.876 214.833 136.201 211.008C136.527 207.183 136.812 203.928 137.056 201.242ZM146.211 103.83C146.455 100.331 146.618 97.6452 146.699 95.7734C146.862 93.9017 146.984 92.5182 147.065 91.623C147.147 90.6465 147.188 90.0361 147.188 89.792C147.188 89.5479 147.188 89.3851 147.188 89.3037C147.269 89.141 147.31 88.8968 147.31 88.5713C147.391 88.1644 147.472 87.3913 147.554 86.252C147.635 85.0312 147.757 83.2816 147.92 81.0029C148.083 78.7243 148.327 75.5911 148.652 71.6035C148.815 68.918 149.059 67.0869 149.385 66.1104C149.792 65.0524 150.728 64.3607 152.192 64.0352C159.11 62.6517 166.353 61.2275 173.921 59.7627C181.489 58.2165 188.813 56.2633 195.894 53.9033C196.138 53.8219 196.504 53.7812 196.992 53.7812C197.236 54.2695 197.562 54.5951 197.969 54.7578L198.335 55.002L195.649 88.4492C195.405 91.1348 195.08 93.0065 194.673 94.0645C194.347 95.1224 193.493 95.7734 192.109 96.0176C185.192 97.3197 178.193 98.7438 171.113 100.29C164.033 101.836 156.546 103.382 148.652 104.929C148.408 105.01 148.042 105.051 147.554 105.051C146.659 105.051 146.211 104.644 146.211 103.83ZM297.578 165.964C296.764 164.092 295.625 162.18 294.16 160.227C292.777 158.273 291.149 156.483 289.277 154.855C287.406 153.228 285.371 151.926 283.174 150.949C280.977 149.891 278.657 149.362 276.216 149.362C272.879 149.362 269.746 150.746 266.816 153.513C263.887 156.28 261.323 159.982 259.126 164.621C256.929 169.178 255.179 174.427 253.877 180.368C252.656 186.228 252.046 192.331 252.046 198.679C252.046 202.585 252.371 206.288 253.022 209.787C253.755 213.205 254.854 216.216 256.318 218.82C257.783 221.424 259.655 223.5 261.934 225.046C264.294 226.592 267.101 227.365 270.356 227.365C275.239 227.365 279.715 225.86 283.784 222.849C287.853 219.756 291.312 215.769 294.16 210.886C294.242 209.177 294.364 207.142 294.526 204.782C294.689 202.422 294.893 199.574 295.137 196.237C295.381 192.819 295.666 188.832 295.991 184.274C296.398 179.636 296.886 174.143 297.456 167.795L297.578 165.964ZM337.983 239.694C337.17 247.751 335.339 255.279 332.49 262.277C329.642 269.276 326.021 275.664 321.626 281.442C317.313 287.302 312.349 292.51 306.733 297.067C301.2 301.706 295.299 305.612 289.033 308.786C282.848 311.96 276.46 314.361 269.868 315.988C263.276 317.697 256.766 318.552 250.337 318.552C246.919 318.552 243.42 318.43 239.839 318.186C236.258 317.941 232.759 317.453 229.341 316.721C225.923 316.07 222.668 315.093 219.575 313.791C216.483 312.57 213.716 310.983 211.274 309.03V308.908C211.274 308.501 211.559 307.077 212.129 304.636C212.78 302.194 213.512 299.305 214.326 295.969C215.221 292.714 216.117 289.336 217.012 285.837C217.988 282.338 218.802 279.326 219.453 276.804C219.779 275.664 220.104 274.891 220.43 274.484C220.755 274.077 221.121 273.874 221.528 273.874C222.017 273.874 222.301 273.915 222.383 273.996C224.743 275.542 226.94 276.804 228.975 277.78C231.09 278.838 233.288 279.652 235.566 280.222C237.926 280.873 240.49 281.32 243.257 281.564C246.024 281.809 249.238 281.931 252.9 281.931C258.597 281.931 263.643 280.832 268.037 278.635C272.432 276.438 276.216 273.589 279.39 270.09C282.563 266.59 285.086 262.725 286.958 258.493C288.911 254.343 290.254 250.233 290.986 246.164C285.127 250.07 279.186 253.244 273.164 255.686C267.142 258.127 261.079 259.348 254.976 259.348C246.593 259.348 239.351 257.639 233.247 254.221C227.144 250.884 222.098 246.368 218.11 240.671C214.123 234.974 211.152 228.464 209.199 221.14C207.327 213.734 206.392 206.003 206.392 197.946C206.392 191.599 206.961 185.21 208.101 178.781C209.321 172.271 211.071 166.005 213.35 159.982C215.71 153.96 218.599 148.345 222.017 143.137C225.435 137.847 229.382 133.249 233.857 129.343C238.333 125.437 243.298 122.385 248.75 120.188C254.202 117.909 260.143 116.77 266.572 116.77C273.571 116.77 280.041 118.316 285.981 121.408C292.004 124.501 297.456 128.326 302.339 132.883C302.502 131.418 302.624 130.279 302.705 129.465C302.786 128.57 302.99 127.878 303.315 127.39C303.641 126.901 304.17 126.535 304.902 126.291C305.716 126.047 306.855 125.762 308.32 125.437C309.215 125.274 310.843 124.948 313.203 124.46C315.563 123.89 318.371 123.239 321.626 122.507C324.881 121.774 328.462 121.001 332.368 120.188C336.274 119.374 340.221 118.519 344.209 117.624C345.186 117.38 346.081 117.258 346.895 117.258C349.417 117.258 350.679 118.885 350.679 122.141C350.679 122.548 350.679 122.954 350.679 123.361C350.679 123.687 350.638 124.053 350.557 124.46L337.983 239.694ZM468.11 257.395C467.215 257.639 466.035 258.005 464.57 258.493C463.105 259.063 461.681 259.348 460.298 259.348C459.159 259.348 458.141 259.063 457.246 258.493C456.432 257.924 456.025 256.947 456.025 255.563V254.831C456.514 250.437 456.921 246.734 457.246 243.723C457.572 240.63 457.856 237.863 458.101 235.422C458.426 232.899 458.67 230.417 458.833 227.976C459.077 225.453 459.362 222.564 459.688 219.309C460.013 215.972 460.379 212.066 460.786 207.59C461.274 203.033 461.844 197.377 462.495 190.622C462.902 186.472 463.268 182.24 463.594 177.927C463.919 173.614 464.082 169.626 464.082 165.964C464.082 163.522 463.879 161.285 463.472 159.25C463.146 157.134 462.495 155.344 461.519 153.879C460.623 152.333 459.362 151.153 457.734 150.339C456.107 149.525 454.032 149.118 451.509 149.118C449.637 149.118 447.033 149.525 443.696 150.339C440.441 151.153 437.186 152.495 433.931 154.367C430.675 156.239 427.786 158.721 425.264 161.813C422.741 164.825 421.317 168.568 420.991 173.044C420.503 179.066 420.055 184.234 419.648 188.547C419.242 192.779 418.875 196.4 418.55 199.411C418.224 202.341 417.939 204.742 417.695 206.613C417.533 208.485 417.41 210.072 417.329 211.374C417.248 211.7 417.126 212.595 416.963 214.06C416.8 215.524 416.597 217.274 416.353 219.309C416.19 221.343 415.986 223.5 415.742 225.778C415.579 228.057 415.376 230.214 415.132 232.248C414.969 234.283 414.806 236.032 414.644 237.497C414.562 238.962 414.521 239.857 414.521 240.183C414.521 240.834 414.521 241.403 414.521 241.892C414.603 242.299 414.644 242.705 414.644 243.112C414.644 243.763 414.318 244.333 413.667 244.821C413.097 245.228 411.755 245.716 409.639 246.286L377.29 257.395C376.395 257.72 375.215 258.127 373.75 258.615C372.285 259.104 370.861 259.348 369.478 259.348C368.338 259.348 367.321 259.063 366.426 258.493C365.612 257.924 365.205 256.947 365.205 255.563L376.313 130.808C376.558 128.122 376.842 126.291 377.168 125.314C377.575 124.257 378.511 123.565 379.976 123.239C387.381 121.774 394.99 120.31 402.803 118.845C410.615 117.299 418.224 115.345 425.63 112.985C426.281 112.985 426.647 113.107 426.729 113.352C426.891 113.514 426.973 113.799 426.973 114.206C426.973 114.369 426.932 114.613 426.851 114.938C426.851 115.264 426.729 115.996 426.484 117.136C426.322 118.275 426.037 120.025 425.63 122.385C425.304 124.663 424.816 127.878 424.165 132.028C429.78 128.773 435.029 126.169 439.912 124.216C444.876 122.181 449.515 120.635 453.828 119.577C458.223 118.438 462.332 117.705 466.157 117.38C469.982 116.973 473.563 116.77 476.899 116.77C488.374 116.77 496.715 120.269 501.924 127.268C507.132 134.185 509.736 144.602 509.736 158.518C509.736 160.471 509.696 162.505 509.614 164.621C509.533 166.656 509.37 168.771 509.126 170.969L503.511 223.459C503.104 226.877 502.86 230.051 502.778 232.98C502.697 235.829 502.656 239.165 502.656 242.99C502.656 243.641 502.656 244.211 502.656 244.699C502.738 245.106 502.778 245.472 502.778 245.798C502.778 246.53 502.453 247.1 501.802 247.507C501.232 247.914 499.889 248.443 497.773 249.094L468.11 257.395ZM595.308 259.348C583.833 259.348 573.742 257.476 565.034 253.732C556.408 249.989 549.165 245.025 543.306 238.84C537.446 232.574 533.052 225.412 530.122 217.355C527.192 209.217 525.728 200.795 525.728 192.087C525.728 183.379 527.152 175.119 530 167.307C532.848 159.413 536.836 152.373 541.963 146.188C547.09 139.922 553.234 134.714 560.396 130.563C567.557 126.332 575.451 123.483 584.077 122.019C585.379 121.937 586.03 121.652 586.03 121.164C586.03 120.269 585.908 119.455 585.664 118.723C585.501 117.909 585.42 117.217 585.42 116.647C585.42 115.752 585.583 115.142 585.908 114.816C586.234 114.491 586.6 114.328 587.007 114.328C602.55 114.328 615.775 116.118 626.68 119.699C637.585 123.199 646.455 128 653.291 134.104C660.127 140.207 665.091 147.409 668.184 155.71C671.276 164.011 672.822 172.922 672.822 182.443C672.822 194.569 670.788 205.393 666.719 214.914C662.65 224.436 657.075 232.492 649.995 239.084C642.996 245.676 634.777 250.681 625.337 254.099C615.978 257.598 605.968 259.348 595.308 259.348ZM572.725 190.744C572.725 195.139 573.172 199.493 574.067 203.806C575.044 208.119 576.59 212.025 578.706 215.524C580.903 219.024 583.752 221.872 587.251 224.069C590.75 226.185 595.104 227.243 600.312 227.243C604.056 227.08 607.311 226.267 610.078 224.802C612.926 223.256 615.368 221.302 617.402 218.942C619.437 216.501 621.105 213.775 622.407 210.764C623.791 207.753 624.849 204.66 625.581 201.486C626.395 198.231 626.965 195.057 627.29 191.965C627.616 188.872 627.778 186.065 627.778 183.542C627.778 179.31 627.127 175.16 625.825 171.091C624.604 167.022 622.773 163.441 620.332 160.349C617.891 157.256 614.839 154.774 611.177 152.902C607.596 150.949 603.446 149.973 598.726 149.973C593.843 149.973 589.733 151.438 586.396 154.367C583.06 157.215 580.374 160.756 578.34 164.987C576.387 169.219 574.963 173.695 574.067 178.415C573.172 183.054 572.725 187.163 572.725 190.744ZM788.423 153.635C786.714 153.472 784.801 153.309 782.686 153.146C780.57 152.902 778.332 152.78 775.972 152.78C772.391 152.78 768.729 153.106 764.985 153.757C761.323 154.326 757.905 155.507 754.731 157.297C751.558 159.087 748.831 161.569 746.553 164.743C744.274 167.836 742.809 171.864 742.158 176.828C741.589 182.85 741.1 187.814 740.693 191.721C740.368 195.546 740.124 198.719 739.961 201.242C739.798 203.684 739.635 205.677 739.473 207.224C739.391 208.688 739.31 210.072 739.229 211.374C739.229 211.7 739.147 212.595 738.984 214.06C738.903 215.524 738.74 217.233 738.496 219.187C738.252 221.14 738.008 223.256 737.764 225.534C737.601 227.813 737.397 229.929 737.153 231.882C736.909 233.835 736.706 235.544 736.543 237.009C736.462 238.474 736.421 239.369 736.421 239.694C736.421 240.345 736.421 240.915 736.421 241.403C736.502 241.81 736.543 242.217 736.543 242.624C736.543 243.275 736.217 243.845 735.566 244.333C734.997 244.74 733.654 245.228 731.538 245.798L699.189 257.395C698.294 257.72 697.114 258.127 695.649 258.615C694.185 259.104 692.76 259.348 691.377 259.348C690.238 259.348 689.22 259.063 688.325 258.493C687.511 257.924 687.104 256.947 687.104 255.563L697.603 134.592C697.847 131.906 698.132 130.075 698.457 129.099C698.864 128.041 699.8 127.349 701.265 127.023C708.67 125.559 716.32 124.094 724.214 122.629C732.108 121.083 739.757 119.13 747.163 116.77C747.814 116.77 748.18 116.892 748.262 117.136C748.424 117.299 748.506 117.583 748.506 117.99C748.506 118.153 748.465 118.397 748.384 118.723C748.384 119.048 748.262 119.781 748.018 120.92C747.855 122.059 747.57 123.809 747.163 126.169C746.838 128.448 746.349 131.662 745.698 135.812C749.442 132.883 753.551 130.197 758.027 127.756C762.585 125.314 767.142 123.239 771.699 121.53C776.257 119.74 780.651 118.356 784.883 117.38C789.115 116.322 792.817 115.793 795.991 115.793L788.423 153.635ZM868.989 116.77C876.72 116.77 883.719 118.234 889.985 121.164C896.333 124.012 901.745 127.756 906.221 132.395C910.778 136.952 914.277 142.079 916.719 147.775C919.16 153.472 920.381 159.169 920.381 164.865C920.381 169.911 918.835 174.997 915.742 180.124C912.65 185.17 908.296 189.727 902.681 193.796C897.147 197.865 890.474 201.161 882.661 203.684C874.849 206.206 866.263 207.468 856.904 207.468C852.021 207.468 846.895 206.979 841.523 206.003C841.849 209.502 842.866 212.513 844.575 215.036C846.284 217.559 848.441 219.634 851.045 221.262C853.649 222.889 856.579 224.11 859.834 224.924C863.171 225.656 866.589 226.022 870.088 226.022C873.994 226.022 877.738 225.697 881.318 225.046C884.98 224.313 888.48 223.378 891.816 222.238C895.153 221.099 898.368 219.838 901.46 218.454C904.552 217.071 907.482 215.687 910.249 214.304C910.981 214.141 911.592 214.019 912.08 213.938C912.65 213.775 913.179 213.693 913.667 213.693C913.667 213.693 913.626 214.344 913.545 215.646C913.545 216.949 913.545 218.78 913.545 221.14C913.545 223.5 913.504 226.348 913.423 229.685C913.423 233.021 913.382 236.724 913.301 240.793C913.545 241.2 913.708 241.607 913.789 242.014C913.87 242.421 913.911 242.746 913.911 242.99C913.911 243.967 913.016 245.025 911.226 246.164C909.435 247.303 907.075 248.483 904.146 249.704C901.297 250.925 898.001 252.105 894.258 253.244C890.596 254.383 886.852 255.401 883.027 256.296C879.202 257.272 875.5 258.005 871.919 258.493C868.338 259.063 865.205 259.348 862.52 259.348C853.73 259.348 845.186 257.801 836.885 254.709C828.665 251.698 821.341 247.344 814.912 241.647C808.564 235.951 803.478 229.034 799.653 220.896C795.828 212.757 793.916 203.602 793.916 193.43C793.916 182.769 795.747 172.8 799.409 163.522C803.071 154.164 808.198 146.026 814.79 139.108C821.463 132.191 829.398 126.739 838.594 122.751C847.79 118.763 857.922 116.77 868.989 116.77ZM867.524 149.24C864.188 149.24 861.095 149.973 858.247 151.438C855.48 152.821 852.917 154.855 850.557 157.541C848.278 160.145 846.284 163.319 844.575 167.062C842.866 170.725 841.483 174.794 840.425 179.27C848.807 177.805 855.765 176.258 861.299 174.631C866.833 173.003 871.268 171.376 874.604 169.748C877.941 168.039 880.301 166.371 881.685 164.743C883.068 163.034 883.76 161.407 883.76 159.86C883.76 158.396 883.19 157.012 882.051 155.71C880.993 154.408 879.65 153.269 878.022 152.292C876.395 151.315 874.604 150.583 872.651 150.095C870.78 149.525 869.071 149.24 867.524 149.24Z" fill="black"/>
</g>
<defs>
<clipPath id="clip0_5_2">
<rect width="934" height="338" fill="white"/>
</clipPath>
</defs>
</svg>
