<svg width="338" height="338" viewBox="0 0 338 338" fill="none" xmlns="http://www.w3.org/2000/svg">
<g clip-path="url(#clip0_3_4)">
<path d="M233.307 145.559C211.627 140.48 195.855 137.941 185.992 137.941C183.16 137.941 180.963 138.576 179.4 139.846C177.936 141.115 177.203 142.531 177.203 144.094C177.203 147.316 181.207 150.588 189.215 153.908C197.32 157.131 204.742 160.305 211.48 163.43C218.219 166.555 224.029 170.363 228.912 174.855C239.459 184.621 244.732 199.172 244.732 218.508C244.732 237.746 237.75 252.541 223.785 262.893C209.82 273.244 190.924 278.42 167.096 278.42C143.268 278.42 124.225 276.223 109.967 271.828C103.717 269.973 98.9316 267.775 95.6113 265.236V210.891C96.9785 210.988 99.3711 211.623 102.789 212.795C106.207 213.967 111.871 215.822 119.781 218.361C127.691 220.803 134.869 222.023 141.314 222.023C147.857 222.023 151.129 219.631 151.129 214.846C151.129 211.135 148.199 207.521 142.34 204.006C139.703 202.443 136.725 200.832 133.404 199.172C119.635 192.434 109.771 184.67 103.814 175.881C97.9551 166.994 95.0254 156.594 95.0254 144.68C95.0254 123.488 103.619 107.668 120.807 97.2188C135.26 88.4297 154.156 84.0352 177.496 84.0352C193.805 84.0352 210.162 85.6465 226.568 88.8691C230.084 89.5527 232.33 90.041 233.307 90.334V145.559Z" fill="black"/>
</g>
<defs>
<clipPath id="clip0_3_4">
<rect width="338" height="338" fill="white"/>
</clipPath>
</defs>
</svg>
