<svg width="934" height="338" viewBox="0 0 934 338" fill="none" xmlns="http://www.w3.org/2000/svg">
<g clip-path="url(#clip0_3_2)">
<rect width="934" height="338" fill="white"/>
<path d="M101.875 153.039C87.4219 149.654 76.9076 147.961 70.332 147.961C68.444 147.961 66.9792 148.384 65.9375 149.23C64.9609 150.077 64.4727 151.021 64.4727 152.062C64.4727 154.211 67.1419 156.392 72.4805 158.605C77.8841 160.754 82.832 162.87 87.3242 164.953C91.8164 167.036 95.6901 169.576 98.9453 172.57C105.977 179.081 109.492 188.781 109.492 201.672C109.492 214.497 104.837 224.361 95.5273 231.262C86.2174 238.163 73.6198 241.613 57.7344 241.613C41.849 241.613 29.1536 240.148 19.6484 237.219C15.4818 235.982 12.2917 234.517 10.0781 232.824V196.594C10.9896 196.659 12.5846 197.082 14.8633 197.863C17.1419 198.645 20.918 199.882 26.1914 201.574C31.4648 203.202 36.25 204.016 40.5469 204.016C44.9089 204.016 47.0898 202.421 47.0898 199.23C47.0898 196.757 45.1367 194.348 41.2305 192.004C39.4727 190.962 37.487 189.888 35.2734 188.781C26.0938 184.289 19.5182 179.113 15.5469 173.254C11.6406 167.329 9.6875 160.396 9.6875 152.453C9.6875 138.326 15.4167 127.779 26.875 120.812C36.5104 114.953 49.1081 112.023 64.668 112.023C75.5404 112.023 86.4453 113.098 97.3828 115.246C99.7266 115.702 101.224 116.027 101.875 116.223V153.039ZM159.59 60.3633C169.16 60.3633 176.257 62.3815 180.879 66.418C185.501 70.3893 187.78 75.4674 187.715 81.6523C187.715 87.8372 184.753 93.5339 178.828 98.7422C172.969 103.951 165.124 106.555 155.293 106.555C141.491 106.555 132.897 102.388 129.512 94.0547C128.535 91.7109 128.047 89.1068 128.047 86.2422C128.047 83.3776 128.73 80.3828 130.098 77.2578C131.465 74.1328 133.516 71.3333 136.25 68.8594C142.305 63.1953 150.085 60.3633 159.59 60.3633ZM186.055 238H129.512V116.613H186.055V238ZM253.926 288V253.43C257.246 253.82 260.859 254.374 264.766 255.09C268.737 255.806 272.578 256.164 276.289 256.164C280 256.164 283.418 255.741 286.543 254.895C289.733 254.048 292.565 252.388 295.039 249.914C300.378 244.576 303.079 235.591 303.145 222.961C291.751 235.396 277.949 241.613 261.738 241.613C245.592 241.678 232.116 236.568 221.309 226.281C210.566 215.995 205.195 201.314 205.195 182.238C205.195 168.566 208.19 156.424 214.18 145.812C220.169 135.135 228.21 126.835 238.301 120.91C248.457 114.986 259.232 112.023 270.625 112.023C282.083 112.023 291.979 115.767 300.312 123.254C303.047 125.663 305.391 128.43 307.344 131.555L321.406 116.613H353.34V238C353.405 263.065 342.109 279.536 319.453 287.414C310.339 290.604 299.889 292.199 288.105 292.199C276.387 292.199 264.993 290.799 253.926 288ZM300.801 153.43C298.457 152.062 295.983 151.379 293.379 151.379C290.84 151.379 288.366 151.9 285.957 152.941C281.009 155.09 276.582 158.573 272.676 163.391C266.1 171.008 262.812 179.081 262.812 187.609C262.812 193.339 264.505 197.375 267.891 199.719C270.755 201.607 275.182 201.574 281.172 199.621C286.901 197.733 293.444 193.924 300.801 188.195V153.43ZM441.816 149.621C436.608 149.621 434.004 153.82 434.004 162.219V238H375.996V116.613H408.027L421.992 135.559C427.201 128.332 434.395 122.603 443.574 118.371C452.819 114.139 461.445 112.023 469.453 112.023C484.167 112.023 495.82 115.93 504.414 123.742C513.073 131.555 517.402 142.036 517.402 155.188V238H459.004V179.406C459.004 159.549 453.275 149.621 441.816 149.621ZM624.336 151.184C623.034 150.533 621.341 150.207 619.258 150.207C617.24 150.207 614.993 150.826 612.52 152.062C610.046 153.234 607.604 154.862 605.195 156.945C600.117 161.372 595.853 166.743 592.402 173.059C588.952 179.374 587.227 185.201 587.227 190.539C587.227 195.812 589.245 199.361 593.281 201.184C594.714 201.835 596.471 202.16 598.555 202.16C600.638 202.16 602.819 201.542 605.098 200.305C607.376 199.003 609.655 197.277 611.934 195.129C616.686 190.637 620.853 185.201 624.434 178.82C628.014 172.375 629.805 166.613 629.805 161.535C629.805 156.457 627.982 153.007 624.336 151.184ZM605.391 241.613C586.771 241.613 570.723 235.721 557.246 223.938C542.858 211.438 535.664 195.715 535.664 176.77C535.664 157.759 542.402 142.232 555.879 130.188C569.355 118.078 585.99 112.023 605.781 112.023C625.573 112.023 642.207 117.948 655.684 129.797C669.16 141.581 675.931 157.368 675.996 177.16C676.061 189.855 672.839 201.086 666.328 210.852C659.818 220.617 651.126 228.169 640.254 233.508C629.382 238.846 617.76 241.548 605.391 241.613ZM782.148 162.414C776.159 162.414 770.007 164.595 763.691 168.957C757.376 173.319 754.186 177.453 754.121 181.359V238H695.332V116.613H754.121V129.602C757.441 124.589 761.543 120.585 766.426 117.59C771.374 114.595 776.615 112.805 782.148 112.219V162.414ZM878.828 151.379C878.828 145.65 876.159 142.785 870.82 142.785C864.701 143.371 860.729 146.529 858.906 152.258C857.995 154.992 857.344 158.182 856.953 161.828C856.628 165.409 856.107 169.25 855.391 173.352L876.777 168.566L878.633 153.625L878.828 151.379ZM865.645 195.812C865.645 195.812 863.854 195.812 860.273 195.812C858.581 195.812 856.953 195.747 855.391 195.617C855.391 203.365 859.525 207.596 867.793 208.312C870.072 208.508 872.285 208.605 874.434 208.605C879.967 208.605 886.901 207.336 895.234 204.797C903.633 202.258 911.152 198.124 917.793 192.395L923.848 222.766C909.329 235.331 887.389 241.613 858.027 241.613C841.165 241.613 826.68 236.698 814.57 226.867C801.419 216.125 794.844 201.249 794.844 182.238C794.844 167.915 798.555 155.057 805.977 143.664C812.878 133.247 822.22 125.337 834.004 119.934C845.788 114.53 858.516 111.828 872.188 111.828C889.896 111.828 903.275 115.702 912.324 123.449C921.439 131.197 925.964 140.767 925.898 152.16C925.898 163.553 920.462 173.677 909.59 182.531C898.717 191.385 884.069 195.812 865.645 195.812Z" fill="black"/>
</g>
<defs>
<clipPath id="clip0_3_2">
<rect width="934" height="338" fill="white"/>
</clipPath>
</defs>
</svg>
