<svg width="191" height="75" viewBox="0 0 191 75" fill="none" xmlns="http://www.w3.org/2000/svg">
<path d="M10.6465 17.8359H21.0615L34.5625 57.9917L48.0249 17.8359H58.4399L38.7671 74H30.3193L10.6465 17.8359ZM4.62891 17.8359H15.2368L17.2041 59.4575V74H4.62891V17.8359ZM53.8496 17.8359H64.4961V74H51.8823V59.4575L53.8496 17.8359ZM102.955 59.1875C102.955 58.236 102.813 57.3874 102.53 56.6416C102.247 55.8701 101.733 55.1629 100.987 54.52C100.242 53.8771 99.1872 53.2342 97.8242 52.5913C96.4613 51.9227 94.674 51.2412 92.4624 50.5469C89.9422 49.724 87.5378 48.7982 85.249 47.7695C82.986 46.7152 80.9673 45.4937 79.1929 44.105C77.4185 42.7163 76.0169 41.0962 74.9883 39.2446C73.9854 37.3931 73.4839 35.2329 73.4839 32.7642C73.4839 30.3726 74.0111 28.2124 75.0654 26.2837C76.1198 24.355 77.5985 22.7091 79.5015 21.3462C81.4045 19.9575 83.6418 18.9032 86.2134 18.1831C88.785 17.4373 91.6138 17.0645 94.6997 17.0645C98.8143 17.0645 102.427 17.7974 105.539 19.2632C108.676 20.7033 111.119 22.7349 112.868 25.3579C114.617 27.9552 115.491 30.9769 115.491 34.4229H102.993C102.993 32.9056 102.672 31.5684 102.029 30.4111C101.412 29.2282 100.46 28.3024 99.1743 27.6338C97.9142 26.9652 96.3327 26.6309 94.4297 26.6309C92.5781 26.6309 91.0223 26.9137 89.7622 27.4795C88.5278 28.0195 87.5892 28.7653 86.9463 29.7168C86.3291 30.6683 86.0205 31.7098 86.0205 32.8413C86.0205 33.7414 86.252 34.5643 86.7148 35.3101C87.2035 36.0301 87.8978 36.7116 88.7979 37.3545C89.7236 37.9717 90.8551 38.5632 92.1924 39.1289C93.5296 39.6947 95.0597 40.2347 96.7827 40.749C99.7915 41.7005 102.453 42.7549 104.768 43.9121C107.108 45.0693 109.075 46.3809 110.669 47.8467C112.264 49.3125 113.46 50.9712 114.257 52.8228C115.08 54.6743 115.491 56.7702 115.491 59.1104C115.491 61.6048 115.003 63.8164 114.025 65.7451C113.074 67.6738 111.685 69.3197 109.859 70.6826C108.059 72.0199 105.899 73.0356 103.379 73.73C100.859 74.4243 98.0428 74.7715 94.9312 74.7715C92.1024 74.7715 89.3122 74.4115 86.5605 73.6914C83.8089 72.9456 81.3145 71.8141 79.0771 70.2969C76.8656 68.7796 75.0911 66.8509 73.7539 64.5107C72.4424 62.1449 71.7866 59.3418 71.7866 56.1016H84.3618C84.3618 57.7988 84.6061 59.2389 85.0947 60.4219C85.5833 61.5791 86.2777 62.5177 87.1777 63.2378C88.1035 63.9578 89.2222 64.4722 90.5337 64.7808C91.8452 65.0894 93.311 65.2437 94.9312 65.2437C96.8084 65.2437 98.3257 64.9865 99.4829 64.4722C100.666 63.9321 101.54 63.1992 102.106 62.2734C102.672 61.3477 102.955 60.319 102.955 59.1875Z" fill="#1F8FCE"/>
<path d="M189.25 63.75H162.731C162.65 66.0715 161.122 67.5 159.15 67.5H152.5C150.456 67.5 148.888 65.4527 148.916 63.75H122.75C121.787 63.75 121 64.5937 121 65.625V67.5C121 71.625 124.15 75 128 75H184C187.85 75 191 71.625 191 67.5V65.625C191 64.5937 190.213 63.75 189.25 63.75ZM184 20.625C184 17.5312 181.638 15 178.75 15H133.25C130.363 15 128 17.5312 128 20.625V60H184V20.625ZM177 52.5H135V22.5H177V52.5Z" fill="#1FAFCE"/>
<path d="M180 31.9092V30.7684L178.473 30.297L178.355 29.74L179.432 28.6313L178.875 27.5923L177.321 27.994L176.936 27.5923L177.337 26.0819L176.314 25.4606L175.173 26.5854L174.6 26.414L174.225 25H173.014L172.682 26.414L172.034 26.5854L170.979 25.4606L169.939 26.0498L170.373 27.5334L169.939 27.9833L168.412 27.5816L167.823 28.6046L168.932 29.7293L168.777 30.2863L167.25 30.7041L167.234 31.8663L168.777 32.268L168.905 32.9161L167.829 33.9819L168.386 34.9728L169.971 34.5711L170.357 35.0317L169.923 36.4724L170.989 37.0937L172.029 36.0011L172.65 36.1564L173.009 37.6829L174.22 37.699L174.579 36.1564L175.2 35.969L176.309 37.1259L177.402 36.4778L176.93 34.9781L177.348 34.5443L178.891 35.0156L179.443 33.9391L178.323 32.9322L178.441 32.2841L180 31.9092ZM173.614 34.3301C171.937 34.3301 170.571 32.9696 170.571 31.2879C170.571 29.6061 171.932 28.2457 173.614 28.2457C175.296 28.2457 176.657 29.6061 176.657 31.2879C176.657 32.975 175.296 34.3301 173.614 34.3301ZM177.488 35.2084L180 35.985V38.1221L177.048 38.8398L176.829 40.0556L178.912 41.9462L177.884 43.9761L174.991 43.0817L174.209 43.8958L175.104 46.7077L173.052 47.9235L170.968 45.7543L169.805 46.1078L169.13 49L166.859 48.9732L166.184 46.1024L165.021 45.8025L163.071 47.8592L161.068 46.6969L161.882 43.9922L161.148 43.1299L158.175 43.8851L157.12 42.0212L159.15 40.0181L158.893 38.7969L156 38.0417L156.027 35.8511L158.893 35.0638L159.198 34.0087L157.114 31.8985L158.223 29.981L161.095 30.7362L161.909 29.8953L161.095 27.1102L163.045 26.0016L165.016 28.1118L166.232 27.7851L166.854 25H169.125L169.746 27.4584L168.536 27.1424L168.198 27.0513L168.021 27.3566L167.432 28.3796L167.255 28.6795L167.502 28.9259L168.423 29.8578L168.407 29.9114L167.132 30.2595L166.8 30.3506L166.795 30.6934L166.784 31.3843C164.239 31.9413 162.321 34.2122 162.321 36.9277C162.321 40.0502 164.855 42.5889 167.984 42.5889C170.689 42.5889 172.95 40.6929 173.512 38.1542L174.22 38.1649L174.589 38.1703L174.675 37.8114L174.975 36.526L175.077 36.4939L175.993 37.4472L176.245 37.7097L176.555 37.5276L177.648 36.8795L177.959 36.692L177.852 36.3439L177.488 35.2084Z" fill="#1FAFCE"/>
</svg>
